<svg width="147" height="369" viewBox="0 0 147 369" fill="none" xmlns="http://www.w3.org/2000/svg">
<circle cx="3.25" cy="3.25" r="3.25" fill="#68D591" fill-opacity="0.27"/>
<circle cx="15.75" cy="3.25" r="3.25" fill="#68D591" fill-opacity="0.27"/>
<circle cx="28.25" cy="3.25" r="3.25" fill="#68D591" fill-opacity="0.27"/>
<circle cx="40.75" cy="3.25" r="3.25" fill="#68D591" fill-opacity="0.27"/>
<circle cx="53.25" cy="3.25" r="3.25" fill="#68D591" fill-opacity="0.27"/>
<circle cx="65.75" cy="3.25" r="3.25" fill="#68D591" fill-opacity="0.27"/>
<circle cx="78.25" cy="3.25" r="3.25" fill="#68D591" fill-opacity="0.27"/>
<circle cx="90.75" cy="3.25" r="3.25" fill="#68D591" fill-opacity="0.27"/>
<circle cx="103.25" cy="3.25" r="3.25" fill="#68D591" fill-opacity="0.27"/>
<circle cx="115.75" cy="3.25" r="3.25" fill="#68D591" fill-opacity="0.27"/>
<circle cx="128.25" cy="3.25" r="3.25" fill="#68D591" fill-opacity="0.27"/>
<circle cx="140.75" cy="3.25" r="3.25" fill="#68D591" fill-opacity="0.27"/>
<circle cx="3.25" cy="15.75" r="3.25" fill="#68D591" fill-opacity="0.27"/>
<circle cx="15.75" cy="15.75" r="3.25" fill="#68D591" fill-opacity="0.27"/>
<circle cx="28.25" cy="15.75" r="3.25" fill="#68D591" fill-opacity="0.27"/>
<circle cx="40.75" cy="15.75" r="3.25" fill="#68D591" fill-opacity="0.27"/>
<circle cx="53.25" cy="15.75" r="3.25" fill="#68D591" fill-opacity="0.27"/>
<circle cx="65.75" cy="15.75" r="3.25" fill="#68D591" fill-opacity="0.27"/>
<circle cx="78.25" cy="15.75" r="3.25" fill="#68D591" fill-opacity="0.27"/>
<circle cx="90.75" cy="15.75" r="3.25" fill="#68D591" fill-opacity="0.27"/>
<circle cx="103.25" cy="15.75" r="3.25" fill="#68D591" fill-opacity="0.27"/>
<circle cx="115.75" cy="15.75" r="3.25" fill="#68D591" fill-opacity="0.27"/>
<circle cx="128.25" cy="15.75" r="3.25" fill="#68D591" fill-opacity="0.27"/>
<circle cx="140.75" cy="15.75" r="3.25" fill="#68D591" fill-opacity="0.27"/>
<circle cx="3.25" cy="28.25" r="3.25" fill="#68D591" fill-opacity="0.27"/>
<circle cx="15.75" cy="28.25" r="3.25" fill="#68D591" fill-opacity="0.27"/>
<circle cx="28.25" cy="28.25" r="3.25" fill="#68D591" fill-opacity="0.27"/>
<circle cx="40.75" cy="28.25" r="3.25" fill="#68D591" fill-opacity="0.27"/>
<circle cx="53.25" cy="28.25" r="3.25" fill="#68D591" fill-opacity="0.27"/>
<circle cx="65.75" cy="28.25" r="3.25" fill="#68D591" fill-opacity="0.27"/>
<circle cx="78.25" cy="28.25" r="3.25" fill="#68D591" fill-opacity="0.27"/>
<circle cx="90.75" cy="28.25" r="3.25" fill="#68D591" fill-opacity="0.27"/>
<circle cx="103.25" cy="28.25" r="3.25" fill="#68D591" fill-opacity="0.27"/>
<circle cx="115.75" cy="28.25" r="3.25" fill="#68D591" fill-opacity="0.27"/>
<circle cx="128.25" cy="28.25" r="3.25" fill="#68D591" fill-opacity="0.27"/>
<circle cx="140.75" cy="28.25" r="3.25" fill="#68D591" fill-opacity="0.27"/>
<circle cx="3.25" cy="40.75" r="3.25" fill="#68D591" fill-opacity="0.27"/>
<circle cx="15.75" cy="40.75" r="3.25" fill="#68D591" fill-opacity="0.27"/>
<circle cx="28.25" cy="40.75" r="3.25" fill="#68D591" fill-opacity="0.27"/>
<circle cx="40.75" cy="40.75" r="3.25" fill="#68D591" fill-opacity="0.27"/>
<circle cx="53.25" cy="40.75" r="3.25" fill="#68D591" fill-opacity="0.27"/>
<circle cx="65.75" cy="40.75" r="3.25" fill="#68D591" fill-opacity="0.27"/>
<circle cx="78.25" cy="40.75" r="3.25" fill="#68D591" fill-opacity="0.27"/>
<circle cx="90.75" cy="40.75" r="3.25" fill="#68D591" fill-opacity="0.27"/>
<circle cx="103.25" cy="40.75" r="3.25" fill="#68D591" fill-opacity="0.27"/>
<circle cx="115.75" cy="40.75" r="3.25" fill="#68D591" fill-opacity="0.27"/>
<circle cx="128.25" cy="40.75" r="3.25" fill="#68D591" fill-opacity="0.27"/>
<circle cx="140.75" cy="40.75" r="3.25" fill="#68D591" fill-opacity="0.27"/>
<circle cx="3.25" cy="53.25" r="3.25" fill="#68D591" fill-opacity="0.27"/>
<circle cx="15.75" cy="53.25" r="3.25" fill="#68D591" fill-opacity="0.27"/>
<circle cx="28.25" cy="53.25" r="3.25" fill="#68D591" fill-opacity="0.27"/>
<circle cx="40.75" cy="53.25" r="3.25" fill="#68D591" fill-opacity="0.27"/>
<circle cx="53.25" cy="53.25" r="3.25" fill="#68D591" fill-opacity="0.27"/>
<circle cx="65.75" cy="53.25" r="3.25" fill="#68D591" fill-opacity="0.27"/>
<circle cx="78.25" cy="53.25" r="3.25" fill="#68D591" fill-opacity="0.27"/>
<circle cx="90.75" cy="53.25" r="3.25" fill="#68D591" fill-opacity="0.27"/>
<circle cx="103.25" cy="53.25" r="3.25" fill="#68D591" fill-opacity="0.27"/>
<circle cx="115.75" cy="53.25" r="3.25" fill="#68D591" fill-opacity="0.27"/>
<circle cx="128.25" cy="53.25" r="3.25" fill="#68D591" fill-opacity="0.27"/>
<circle cx="140.75" cy="53.25" r="3.25" fill="#68D591" fill-opacity="0.27"/>
<circle cx="3.25" cy="65.75" r="3.25" fill="#68D591" fill-opacity="0.27"/>
<circle cx="15.75" cy="65.75" r="3.25" fill="#68D591" fill-opacity="0.27"/>
<circle cx="28.25" cy="65.75" r="3.25" fill="#68D591" fill-opacity="0.27"/>
<circle cx="40.75" cy="65.75" r="3.25" fill="#68D591" fill-opacity="0.27"/>
<circle cx="53.25" cy="65.75" r="3.25" fill="#68D591" fill-opacity="0.27"/>
<circle cx="65.75" cy="65.75" r="3.25" fill="#68D591" fill-opacity="0.27"/>
<circle cx="78.25" cy="65.75" r="3.25" fill="#68D591" fill-opacity="0.27"/>
<circle cx="90.75" cy="65.75" r="3.25" fill="#68D591" fill-opacity="0.27"/>
<circle cx="103.25" cy="65.75" r="3.25" fill="#68D591" fill-opacity="0.27"/>
<circle cx="115.75" cy="65.75" r="3.25" fill="#68D591" fill-opacity="0.27"/>
<circle cx="128.25" cy="65.75" r="3.25" fill="#68D591" fill-opacity="0.27"/>
<circle cx="140.75" cy="65.75" r="3.25" fill="#68D591" fill-opacity="0.27"/>
<circle cx="3.25" cy="78.25" r="3.25" fill="#68D591" fill-opacity="0.27"/>
<circle cx="15.75" cy="78.25" r="3.25" fill="#68D591" fill-opacity="0.27"/>
<circle cx="28.25" cy="78.25" r="3.25" fill="#68D591" fill-opacity="0.27"/>
<circle cx="40.75" cy="78.25" r="3.25" fill="#68D591" fill-opacity="0.27"/>
<circle cx="53.25" cy="78.25" r="3.25" fill="#68D591" fill-opacity="0.27"/>
<circle cx="65.75" cy="78.25" r="3.25" fill="#68D591" fill-opacity="0.27"/>
<circle cx="78.25" cy="78.25" r="3.25" fill="#68D591" fill-opacity="0.27"/>
<circle cx="90.75" cy="78.25" r="3.25" fill="#68D591" fill-opacity="0.27"/>
<circle cx="103.25" cy="78.25" r="3.25" fill="#68D591" fill-opacity="0.27"/>
<circle cx="115.75" cy="78.25" r="3.25" fill="#68D591" fill-opacity="0.27"/>
<circle cx="128.25" cy="78.25" r="3.25" fill="#68D591" fill-opacity="0.27"/>
<circle cx="140.75" cy="78.25" r="3.25" fill="#68D591" fill-opacity="0.27"/>
<circle cx="3.25" cy="90.75" r="3.25" fill="#68D591" fill-opacity="0.27"/>
<circle cx="15.75" cy="90.75" r="3.25" fill="#68D591" fill-opacity="0.27"/>
<circle cx="28.25" cy="90.75" r="3.25" fill="#68D591" fill-opacity="0.27"/>
<circle cx="40.75" cy="90.75" r="3.25" fill="#68D591" fill-opacity="0.27"/>
<circle cx="53.25" cy="90.75" r="3.25" fill="#68D591" fill-opacity="0.27"/>
<circle cx="65.75" cy="90.75" r="3.25" fill="#68D591" fill-opacity="0.27"/>
<circle cx="78.25" cy="90.75" r="3.25" fill="#68D591" fill-opacity="0.27"/>
<circle cx="90.75" cy="90.75" r="3.25" fill="#68D591" fill-opacity="0.27"/>
<circle cx="103.25" cy="90.75" r="3.25" fill="#68D591" fill-opacity="0.27"/>
<circle cx="115.75" cy="90.75" r="3.25" fill="#68D591" fill-opacity="0.27"/>
<circle cx="128.25" cy="90.75" r="3.25" fill="#68D591" fill-opacity="0.27"/>
<circle cx="140.75" cy="90.75" r="3.25" fill="#68D591" fill-opacity="0.27"/>
<circle cx="3.25" cy="103.25" r="3.25" fill="#68D591" fill-opacity="0.27"/>
<circle cx="15.75" cy="103.25" r="3.25" fill="#68D591" fill-opacity="0.27"/>
<circle cx="28.25" cy="103.25" r="3.25" fill="#68D591" fill-opacity="0.27"/>
<circle cx="40.75" cy="103.25" r="3.25" fill="#68D591" fill-opacity="0.27"/>
<circle cx="53.25" cy="103.25" r="3.25" fill="#68D591" fill-opacity="0.27"/>
<circle cx="65.75" cy="103.25" r="3.25" fill="#68D591" fill-opacity="0.27"/>
<circle cx="78.25" cy="103.25" r="3.25" fill="#68D591" fill-opacity="0.27"/>
<circle cx="90.75" cy="103.25" r="3.25" fill="#68D591" fill-opacity="0.27"/>
<circle cx="103.25" cy="103.25" r="3.25" fill="#68D591" fill-opacity="0.27"/>
<circle cx="115.75" cy="103.25" r="3.25" fill="#68D591" fill-opacity="0.27"/>
<circle cx="128.25" cy="103.25" r="3.25" fill="#68D591" fill-opacity="0.27"/>
<circle cx="140.75" cy="103.25" r="3.25" fill="#68D591" fill-opacity="0.27"/>
<circle cx="3.25" cy="115.75" r="3.25" fill="#68D591" fill-opacity="0.27"/>
<circle cx="15.75" cy="115.75" r="3.25" fill="#68D591" fill-opacity="0.27"/>
<circle cx="28.25" cy="115.75" r="3.25" fill="#68D591" fill-opacity="0.27"/>
<circle cx="40.75" cy="115.75" r="3.25" fill="#68D591" fill-opacity="0.27"/>
<circle cx="53.25" cy="115.75" r="3.25" fill="#68D591" fill-opacity="0.27"/>
<circle cx="65.75" cy="115.75" r="3.25" fill="#68D591" fill-opacity="0.27"/>
<circle cx="78.25" cy="115.75" r="3.25" fill="#68D591" fill-opacity="0.27"/>
<circle cx="90.75" cy="115.75" r="3.25" fill="#68D591" fill-opacity="0.27"/>
<circle cx="103.25" cy="115.75" r="3.25" fill="#68D591" fill-opacity="0.27"/>
<circle cx="115.75" cy="115.75" r="3.25" fill="#68D591" fill-opacity="0.27"/>
<circle cx="128.25" cy="115.75" r="3.25" fill="#68D591" fill-opacity="0.27"/>
<circle cx="140.75" cy="115.75" r="3.25" fill="#68D591" fill-opacity="0.27"/>
<circle cx="3.25" cy="128.25" r="3.25" fill="#68D591" fill-opacity="0.27"/>
<circle cx="15.75" cy="128.25" r="3.25" fill="#68D591" fill-opacity="0.27"/>
<circle cx="28.25" cy="128.25" r="3.25" fill="#68D591" fill-opacity="0.27"/>
<circle cx="40.75" cy="128.25" r="3.25" fill="#68D591" fill-opacity="0.27"/>
<circle cx="53.25" cy="128.25" r="3.25" fill="#68D591" fill-opacity="0.27"/>
<circle cx="65.75" cy="128.25" r="3.25" fill="#68D591" fill-opacity="0.27"/>
<circle cx="78.25" cy="128.25" r="3.25" fill="#68D591" fill-opacity="0.27"/>
<circle cx="90.75" cy="128.25" r="3.25" fill="#68D591" fill-opacity="0.27"/>
<circle cx="103.25" cy="128.25" r="3.25" fill="#68D591" fill-opacity="0.27"/>
<circle cx="115.75" cy="128.25" r="3.25" fill="#68D591" fill-opacity="0.27"/>
<circle cx="128.25" cy="128.25" r="3.25" fill="#68D591" fill-opacity="0.27"/>
<circle cx="140.75" cy="128.25" r="3.25" fill="#68D591" fill-opacity="0.27"/>
<circle cx="3.25" cy="140.75" r="3.25" fill="#68D591" fill-opacity="0.27"/>
<circle cx="15.75" cy="140.75" r="3.25" fill="#68D591" fill-opacity="0.27"/>
<circle cx="28.25" cy="140.75" r="3.25" fill="#68D591" fill-opacity="0.27"/>
<circle cx="40.75" cy="140.75" r="3.25" fill="#68D591" fill-opacity="0.27"/>
<circle cx="53.25" cy="140.75" r="3.25" fill="#68D591" fill-opacity="0.27"/>
<circle cx="65.75" cy="140.75" r="3.25" fill="#68D591" fill-opacity="0.27"/>
<circle cx="78.25" cy="140.75" r="3.25" fill="#68D591" fill-opacity="0.27"/>
<circle cx="90.75" cy="140.75" r="3.25" fill="#68D591" fill-opacity="0.27"/>
<circle cx="103.25" cy="140.75" r="3.25" fill="#68D591" fill-opacity="0.27"/>
<circle cx="115.75" cy="140.75" r="3.25" fill="#68D591" fill-opacity="0.27"/>
<circle cx="128.25" cy="140.75" r="3.25" fill="#68D591" fill-opacity="0.27"/>
<circle cx="140.75" cy="140.75" r="3.25" fill="#68D591" fill-opacity="0.27"/>
<circle cx="3.25" cy="153.25" r="3.25" fill="#68D591" fill-opacity="0.27"/>
<circle cx="15.75" cy="153.25" r="3.25" fill="#68D591" fill-opacity="0.27"/>
<circle cx="28.25" cy="153.25" r="3.25" fill="#68D591" fill-opacity="0.27"/>
<circle cx="40.75" cy="153.25" r="3.25" fill="#68D591" fill-opacity="0.27"/>
<circle cx="53.25" cy="153.25" r="3.25" fill="#68D591" fill-opacity="0.27"/>
<circle cx="65.75" cy="153.25" r="3.25" fill="#68D591" fill-opacity="0.27"/>
<circle cx="78.25" cy="153.25" r="3.25" fill="#68D591" fill-opacity="0.27"/>
<circle cx="90.75" cy="153.25" r="3.25" fill="#68D591" fill-opacity="0.27"/>
<circle cx="103.25" cy="153.25" r="3.25" fill="#68D591" fill-opacity="0.27"/>
<circle cx="115.75" cy="153.25" r="3.25" fill="#68D591" fill-opacity="0.27"/>
<circle cx="128.25" cy="153.25" r="3.25" fill="#68D591" fill-opacity="0.27"/>
<circle cx="140.75" cy="153.25" r="3.25" fill="#68D591" fill-opacity="0.27"/>
<circle cx="3.25" cy="165.75" r="3.25" fill="#68D591" fill-opacity="0.27"/>
<circle cx="15.75" cy="165.75" r="3.25" fill="#68D591" fill-opacity="0.27"/>
<circle cx="28.25" cy="165.75" r="3.25" fill="#68D591" fill-opacity="0.27"/>
<circle cx="40.75" cy="165.75" r="3.25" fill="#68D591" fill-opacity="0.27"/>
<circle cx="53.25" cy="165.75" r="3.25" fill="#68D591" fill-opacity="0.27"/>
<circle cx="65.75" cy="165.75" r="3.25" fill="#68D591" fill-opacity="0.27"/>
<circle cx="78.25" cy="165.75" r="3.25" fill="#68D591" fill-opacity="0.27"/>
<circle cx="90.75" cy="165.75" r="3.25" fill="#68D591" fill-opacity="0.27"/>
<circle cx="103.25" cy="165.75" r="3.25" fill="#68D591" fill-opacity="0.27"/>
<circle cx="115.75" cy="165.75" r="3.25" fill="#68D591" fill-opacity="0.27"/>
<circle cx="128.25" cy="165.75" r="3.25" fill="#68D591" fill-opacity="0.27"/>
<circle cx="140.75" cy="165.75" r="3.25" fill="#68D591" fill-opacity="0.27"/>
<circle cx="3.25" cy="178.25" r="3.25" fill="#68D591" fill-opacity="0.27"/>
<circle cx="15.75" cy="178.25" r="3.25" fill="#68D591" fill-opacity="0.27"/>
<circle cx="28.25" cy="178.25" r="3.25" fill="#68D591" fill-opacity="0.27"/>
<circle cx="40.75" cy="178.25" r="3.25" fill="#68D591" fill-opacity="0.27"/>
<circle cx="53.25" cy="178.25" r="3.25" fill="#68D591" fill-opacity="0.27"/>
<circle cx="65.75" cy="178.25" r="3.25" fill="#68D591" fill-opacity="0.27"/>
<circle cx="78.25" cy="178.25" r="3.25" fill="#68D591" fill-opacity="0.27"/>
<circle cx="90.75" cy="178.25" r="3.25" fill="#68D591" fill-opacity="0.27"/>
<circle cx="103.25" cy="178.25" r="3.25" fill="#68D591" fill-opacity="0.27"/>
<circle cx="115.75" cy="178.25" r="3.25" fill="#68D591" fill-opacity="0.27"/>
<circle cx="128.25" cy="178.25" r="3.25" fill="#68D591" fill-opacity="0.27"/>
<circle cx="140.75" cy="178.25" r="3.25" fill="#68D591" fill-opacity="0.27"/>
<circle cx="3.25" cy="190.75" r="3.25" fill="#68D591" fill-opacity="0.27"/>
<circle cx="15.75" cy="190.75" r="3.25" fill="#68D591" fill-opacity="0.27"/>
<circle cx="28.25" cy="190.75" r="3.25" fill="#68D591" fill-opacity="0.27"/>
<circle cx="40.75" cy="190.75" r="3.25" fill="#68D591" fill-opacity="0.27"/>
<circle cx="53.25" cy="190.75" r="3.25" fill="#68D591" fill-opacity="0.27"/>
<circle cx="65.75" cy="190.75" r="3.25" fill="#68D591" fill-opacity="0.27"/>
<circle cx="78.25" cy="190.75" r="3.25" fill="#68D591" fill-opacity="0.27"/>
<circle cx="90.75" cy="190.75" r="3.25" fill="#68D591" fill-opacity="0.27"/>
<circle cx="103.25" cy="190.75" r="3.25" fill="#68D591" fill-opacity="0.27"/>
<circle cx="115.75" cy="190.75" r="3.25" fill="#68D591" fill-opacity="0.27"/>
<circle cx="128.25" cy="190.75" r="3.25" fill="#68D591" fill-opacity="0.27"/>
<circle cx="140.75" cy="190.75" r="3.25" fill="#68D591" fill-opacity="0.27"/>
<circle cx="3.25" cy="203.25" r="3.25" fill="#68D591" fill-opacity="0.27"/>
<circle cx="15.75" cy="203.25" r="3.25" fill="#68D591" fill-opacity="0.27"/>
<circle cx="28.25" cy="203.25" r="3.25" fill="#68D591" fill-opacity="0.27"/>
<circle cx="40.75" cy="203.25" r="3.25" fill="#68D591" fill-opacity="0.27"/>
<circle cx="53.25" cy="203.25" r="3.25" fill="#68D591" fill-opacity="0.27"/>
<circle cx="65.75" cy="203.25" r="3.25" fill="#68D591" fill-opacity="0.27"/>
<circle cx="78.25" cy="203.25" r="3.25" fill="#68D591" fill-opacity="0.27"/>
<circle cx="90.75" cy="203.25" r="3.25" fill="#68D591" fill-opacity="0.27"/>
<circle cx="103.25" cy="203.25" r="3.25" fill="#68D591" fill-opacity="0.27"/>
<circle cx="115.75" cy="203.25" r="3.25" fill="#68D591" fill-opacity="0.27"/>
<circle cx="128.25" cy="203.25" r="3.25" fill="#68D591" fill-opacity="0.27"/>
<circle cx="140.75" cy="203.25" r="3.25" fill="#68D591" fill-opacity="0.27"/>
<circle cx="3.25" cy="215.75" r="3.25" fill="#68D591" fill-opacity="0.27"/>
<circle cx="15.75" cy="215.75" r="3.25" fill="#68D591" fill-opacity="0.27"/>
<circle cx="28.25" cy="215.75" r="3.25" fill="#68D591" fill-opacity="0.27"/>
<circle cx="40.75" cy="215.75" r="3.25" fill="#68D591" fill-opacity="0.27"/>
<circle cx="53.25" cy="215.75" r="3.25" fill="#68D591" fill-opacity="0.27"/>
<circle cx="65.75" cy="215.75" r="3.25" fill="#68D591" fill-opacity="0.27"/>
<circle cx="78.25" cy="215.75" r="3.25" fill="#68D591" fill-opacity="0.27"/>
<circle cx="90.75" cy="215.75" r="3.25" fill="#68D591" fill-opacity="0.27"/>
<circle cx="103.25" cy="215.75" r="3.25" fill="#68D591" fill-opacity="0.27"/>
<circle cx="115.75" cy="215.75" r="3.25" fill="#68D591" fill-opacity="0.27"/>
<circle cx="128.25" cy="215.75" r="3.25" fill="#68D591" fill-opacity="0.27"/>
<circle cx="140.75" cy="215.75" r="3.25" fill="#68D591" fill-opacity="0.27"/>
<circle cx="3.25" cy="228.25" r="3.25" fill="#68D591" fill-opacity="0.27"/>
<circle cx="15.75" cy="228.25" r="3.25" fill="#68D591" fill-opacity="0.27"/>
<circle cx="28.25" cy="228.25" r="3.25" fill="#68D591" fill-opacity="0.27"/>
<circle cx="40.75" cy="228.25" r="3.25" fill="#68D591" fill-opacity="0.27"/>
<circle cx="53.25" cy="228.25" r="3.25" fill="#68D591" fill-opacity="0.27"/>
<circle cx="65.75" cy="228.25" r="3.25" fill="#68D591" fill-opacity="0.27"/>
<circle cx="78.25" cy="228.25" r="3.25" fill="#68D591" fill-opacity="0.27"/>
<circle cx="90.75" cy="228.25" r="3.25" fill="#68D591" fill-opacity="0.27"/>
<circle cx="103.25" cy="228.25" r="3.25" fill="#68D591" fill-opacity="0.27"/>
<circle cx="115.75" cy="228.25" r="3.25" fill="#68D591" fill-opacity="0.27"/>
<circle cx="128.25" cy="228.25" r="3.25" fill="#68D591" fill-opacity="0.27"/>
<circle cx="140.75" cy="228.25" r="3.25" fill="#68D591" fill-opacity="0.27"/>
<circle cx="3.25" cy="240.75" r="3.25" fill="#68D591" fill-opacity="0.27"/>
<circle cx="15.75" cy="240.75" r="3.25" fill="#68D591" fill-opacity="0.27"/>
<circle cx="28.25" cy="240.75" r="3.25" fill="#68D591" fill-opacity="0.27"/>
<circle cx="40.75" cy="240.75" r="3.25" fill="#68D591" fill-opacity="0.27"/>
<circle cx="53.25" cy="240.75" r="3.25" fill="#68D591" fill-opacity="0.27"/>
<circle cx="65.75" cy="240.75" r="3.25" fill="#68D591" fill-opacity="0.27"/>
<circle cx="78.25" cy="240.75" r="3.25" fill="#68D591" fill-opacity="0.27"/>
<circle cx="90.75" cy="240.75" r="3.25" fill="#68D591" fill-opacity="0.27"/>
<circle cx="103.25" cy="240.75" r="3.25" fill="#68D591" fill-opacity="0.27"/>
<circle cx="115.75" cy="240.75" r="3.25" fill="#68D591" fill-opacity="0.27"/>
<circle cx="128.25" cy="240.75" r="3.25" fill="#68D591" fill-opacity="0.27"/>
<circle cx="140.75" cy="240.75" r="3.25" fill="#68D591" fill-opacity="0.27"/>
<circle cx="3.25" cy="253.25" r="3.25" fill="#68D591" fill-opacity="0.27"/>
<circle cx="15.75" cy="253.25" r="3.25" fill="#68D591" fill-opacity="0.27"/>
<circle cx="28.25" cy="253.25" r="3.25" fill="#68D591" fill-opacity="0.27"/>
<circle cx="40.75" cy="253.25" r="3.25" fill="#68D591" fill-opacity="0.27"/>
<circle cx="53.25" cy="253.25" r="3.25" fill="#68D591" fill-opacity="0.27"/>
<circle cx="65.75" cy="253.25" r="3.25" fill="#68D591" fill-opacity="0.27"/>
<circle cx="78.25" cy="253.25" r="3.25" fill="#68D591" fill-opacity="0.27"/>
<circle cx="90.75" cy="253.25" r="3.25" fill="#68D591" fill-opacity="0.27"/>
<circle cx="103.25" cy="253.25" r="3.25" fill="#68D591" fill-opacity="0.27"/>
<circle cx="115.75" cy="253.25" r="3.25" fill="#68D591" fill-opacity="0.27"/>
<circle cx="128.25" cy="253.25" r="3.25" fill="#68D591" fill-opacity="0.27"/>
<circle cx="140.75" cy="253.25" r="3.25" fill="#68D591" fill-opacity="0.27"/>
<circle cx="3.25" cy="265.75" r="3.25" fill="#68D591" fill-opacity="0.27"/>
<circle cx="15.75" cy="265.75" r="3.25" fill="#68D591" fill-opacity="0.27"/>
<circle cx="28.25" cy="265.75" r="3.25" fill="#68D591" fill-opacity="0.27"/>
<circle cx="40.75" cy="265.75" r="3.25" fill="#68D591" fill-opacity="0.27"/>
<circle cx="53.25" cy="265.75" r="3.25" fill="#68D591" fill-opacity="0.27"/>
<circle cx="65.75" cy="265.75" r="3.25" fill="#68D591" fill-opacity="0.27"/>
<circle cx="78.25" cy="265.75" r="3.25" fill="#68D591" fill-opacity="0.27"/>
<circle cx="90.75" cy="265.75" r="3.25" fill="#68D591" fill-opacity="0.27"/>
<circle cx="103.25" cy="265.75" r="3.25" fill="#68D591" fill-opacity="0.27"/>
<circle cx="115.75" cy="265.75" r="3.25" fill="#68D591" fill-opacity="0.27"/>
<circle cx="128.25" cy="265.75" r="3.25" fill="#68D591" fill-opacity="0.27"/>
<circle cx="140.75" cy="265.75" r="3.25" fill="#68D591" fill-opacity="0.27"/>
<circle cx="3.25" cy="278.25" r="3.25" fill="#68D591" fill-opacity="0.27"/>
<circle cx="15.75" cy="278.25" r="3.25" fill="#68D591" fill-opacity="0.27"/>
<circle cx="28.25" cy="278.25" r="3.25" fill="#68D591" fill-opacity="0.27"/>
<circle cx="40.75" cy="278.25" r="3.25" fill="#68D591" fill-opacity="0.27"/>
<circle cx="53.25" cy="278.25" r="3.25" fill="#68D591" fill-opacity="0.27"/>
<circle cx="65.75" cy="278.25" r="3.25" fill="#68D591" fill-opacity="0.27"/>
<circle cx="78.25" cy="278.25" r="3.25" fill="#68D591" fill-opacity="0.27"/>
<circle cx="90.75" cy="278.25" r="3.25" fill="#68D591" fill-opacity="0.27"/>
<circle cx="103.25" cy="278.25" r="3.25" fill="#68D591" fill-opacity="0.27"/>
<circle cx="115.75" cy="278.25" r="3.25" fill="#68D591" fill-opacity="0.27"/>
<circle cx="128.25" cy="278.25" r="3.25" fill="#68D591" fill-opacity="0.27"/>
<circle cx="140.75" cy="278.25" r="3.25" fill="#68D591" fill-opacity="0.27"/>
<circle cx="3.25" cy="290.75" r="3.25" fill="#68D591" fill-opacity="0.27"/>
<circle cx="15.75" cy="290.75" r="3.25" fill="#68D591" fill-opacity="0.27"/>
<circle cx="28.25" cy="290.75" r="3.25" fill="#68D591" fill-opacity="0.27"/>
<circle cx="40.75" cy="290.75" r="3.25" fill="#68D591" fill-opacity="0.27"/>
<circle cx="53.25" cy="290.75" r="3.25" fill="#68D591" fill-opacity="0.27"/>
<circle cx="65.75" cy="290.75" r="3.25" fill="#68D591" fill-opacity="0.27"/>
<circle cx="78.25" cy="290.75" r="3.25" fill="#68D591" fill-opacity="0.27"/>
<circle cx="90.75" cy="290.75" r="3.25" fill="#68D591" fill-opacity="0.27"/>
<circle cx="103.25" cy="290.75" r="3.25" fill="#68D591" fill-opacity="0.27"/>
<circle cx="115.75" cy="290.75" r="3.25" fill="#68D591" fill-opacity="0.27"/>
<circle cx="128.25" cy="290.75" r="3.25" fill="#68D591" fill-opacity="0.27"/>
<circle cx="140.75" cy="290.75" r="3.25" fill="#68D591" fill-opacity="0.27"/>
<circle cx="3.25" cy="303.25" r="3.25" fill="#68D591" fill-opacity="0.27"/>
<circle cx="15.75" cy="303.25" r="3.25" fill="#68D591" fill-opacity="0.27"/>
<circle cx="28.25" cy="303.25" r="3.25" fill="#68D591" fill-opacity="0.27"/>
<circle cx="40.75" cy="303.25" r="3.25" fill="#68D591" fill-opacity="0.27"/>
<circle cx="53.25" cy="303.25" r="3.25" fill="#68D591" fill-opacity="0.27"/>
<circle cx="65.75" cy="303.25" r="3.25" fill="#68D591" fill-opacity="0.27"/>
<circle cx="78.25" cy="303.25" r="3.25" fill="#68D591" fill-opacity="0.27"/>
<circle cx="90.75" cy="303.25" r="3.25" fill="#68D591" fill-opacity="0.27"/>
<circle cx="103.25" cy="303.25" r="3.25" fill="#68D591" fill-opacity="0.27"/>
<circle cx="115.75" cy="303.25" r="3.25" fill="#68D591" fill-opacity="0.27"/>
<circle cx="128.25" cy="303.25" r="3.25" fill="#68D591" fill-opacity="0.27"/>
<circle cx="140.75" cy="303.25" r="3.25" fill="#68D591" fill-opacity="0.27"/>
<circle cx="3.25" cy="315.75" r="3.25" fill="#68D591" fill-opacity="0.27"/>
<circle cx="15.75" cy="315.75" r="3.25" fill="#68D591" fill-opacity="0.27"/>
<circle cx="28.25" cy="315.75" r="3.25" fill="#68D591" fill-opacity="0.27"/>
<circle cx="40.75" cy="315.75" r="3.25" fill="#68D591" fill-opacity="0.27"/>
<circle cx="53.25" cy="315.75" r="3.25" fill="#68D591" fill-opacity="0.27"/>
<circle cx="65.75" cy="315.75" r="3.25" fill="#68D591" fill-opacity="0.27"/>
<circle cx="78.25" cy="315.75" r="3.25" fill="#68D591" fill-opacity="0.27"/>
<circle cx="90.75" cy="315.75" r="3.25" fill="#68D591" fill-opacity="0.27"/>
<circle cx="103.25" cy="315.75" r="3.25" fill="#68D591" fill-opacity="0.27"/>
<circle cx="115.75" cy="315.75" r="3.25" fill="#68D591" fill-opacity="0.27"/>
<circle cx="128.25" cy="315.75" r="3.25" fill="#68D591" fill-opacity="0.27"/>
<circle cx="140.75" cy="315.75" r="3.25" fill="#68D591" fill-opacity="0.27"/>
<circle cx="3.25" cy="328.25" r="3.25" fill="#68D591" fill-opacity="0.27"/>
<circle cx="15.75" cy="328.25" r="3.25" fill="#68D591" fill-opacity="0.27"/>
<circle cx="28.25" cy="328.25" r="3.25" fill="#68D591" fill-opacity="0.27"/>
<circle cx="40.75" cy="328.25" r="3.25" fill="#68D591" fill-opacity="0.27"/>
<circle cx="53.25" cy="328.25" r="3.25" fill="#68D591" fill-opacity="0.27"/>
<circle cx="65.75" cy="328.25" r="3.25" fill="#68D591" fill-opacity="0.27"/>
<circle cx="78.25" cy="328.25" r="3.25" fill="#68D591" fill-opacity="0.27"/>
<circle cx="90.75" cy="328.25" r="3.25" fill="#68D591" fill-opacity="0.27"/>
<circle cx="103.25" cy="328.25" r="3.25" fill="#68D591" fill-opacity="0.27"/>
<circle cx="115.75" cy="328.25" r="3.25" fill="#68D591" fill-opacity="0.27"/>
<circle cx="128.25" cy="328.25" r="3.25" fill="#68D591" fill-opacity="0.27"/>
<circle cx="140.75" cy="328.25" r="3.25" fill="#68D591" fill-opacity="0.27"/>
<circle cx="3.25" cy="340.75" r="3.25" fill="#68D591" fill-opacity="0.27"/>
<circle cx="15.75" cy="340.75" r="3.25" fill="#68D591" fill-opacity="0.27"/>
<circle cx="28.25" cy="340.75" r="3.25" fill="#68D591" fill-opacity="0.27"/>
<circle cx="40.75" cy="340.75" r="3.25" fill="#68D591" fill-opacity="0.27"/>
<circle cx="53.25" cy="340.75" r="3.25" fill="#68D591" fill-opacity="0.27"/>
<circle cx="65.75" cy="340.75" r="3.25" fill="#68D591" fill-opacity="0.27"/>
<circle cx="78.25" cy="340.75" r="3.25" fill="#68D591" fill-opacity="0.27"/>
<circle cx="90.75" cy="340.75" r="3.25" fill="#68D591" fill-opacity="0.27"/>
<circle cx="103.25" cy="340.75" r="3.25" fill="#68D591" fill-opacity="0.27"/>
<circle cx="115.75" cy="340.75" r="3.25" fill="#68D591" fill-opacity="0.27"/>
<circle cx="128.25" cy="340.75" r="3.25" fill="#68D591" fill-opacity="0.27"/>
<circle cx="140.75" cy="340.75" r="3.25" fill="#68D591" fill-opacity="0.27"/>
<circle cx="3.25" cy="353.25" r="3.25" fill="#68D591" fill-opacity="0.27"/>
<circle cx="15.75" cy="353.25" r="3.25" fill="#68D591" fill-opacity="0.27"/>
<circle cx="28.25" cy="353.25" r="3.25" fill="#68D591" fill-opacity="0.27"/>
<circle cx="40.75" cy="353.25" r="3.25" fill="#68D591" fill-opacity="0.27"/>
<circle cx="53.25" cy="353.25" r="3.25" fill="#68D591" fill-opacity="0.27"/>
<circle cx="65.75" cy="353.25" r="3.25" fill="#68D591" fill-opacity="0.27"/>
<circle cx="78.25" cy="353.25" r="3.25" fill="#68D591" fill-opacity="0.27"/>
<circle cx="90.75" cy="353.25" r="3.25" fill="#68D591" fill-opacity="0.27"/>
<circle cx="103.25" cy="353.25" r="3.25" fill="#68D591" fill-opacity="0.27"/>
<circle cx="115.75" cy="353.25" r="3.25" fill="#68D591" fill-opacity="0.27"/>
<circle cx="128.25" cy="353.25" r="3.25" fill="#68D591" fill-opacity="0.27"/>
<circle cx="140.75" cy="353.25" r="3.25" fill="#68D591" fill-opacity="0.27"/>
<circle cx="3.25" cy="365.75" r="3.25" fill="#68D591" fill-opacity="0.27"/>
<circle cx="15.75" cy="365.75" r="3.25" fill="#68D591" fill-opacity="0.27"/>
<circle cx="28.25" cy="365.75" r="3.25" fill="#68D591" fill-opacity="0.27"/>
<circle cx="40.75" cy="365.75" r="3.25" fill="#68D591" fill-opacity="0.27"/>
<circle cx="53.25" cy="365.75" r="3.25" fill="#68D591" fill-opacity="0.27"/>
<circle cx="65.75" cy="365.75" r="3.25" fill="#68D591" fill-opacity="0.27"/>
<circle cx="78.25" cy="365.75" r="3.25" fill="#68D591" fill-opacity="0.27"/>
<circle cx="90.75" cy="365.75" r="3.25" fill="#68D591" fill-opacity="0.27"/>
<circle cx="103.25" cy="365.75" r="3.25" fill="#68D591" fill-opacity="0.27"/>
<circle cx="115.75" cy="365.75" r="3.25" fill="#68D591" fill-opacity="0.27"/>
<circle cx="128.25" cy="365.75" r="3.25" fill="#68D591" fill-opacity="0.27"/>
<circle cx="140.75" cy="365.75" r="3.25" fill="#68D591" fill-opacity="0.27"/>
</svg>
