<svg width="60" height="13" viewBox="0 0 60 13" fill="none" xmlns="http://www.w3.org/2000/svg">
<path d="M4.51562 7.53906H1.47656V6.3125H4.51562C5.10417 6.3125 5.58073 6.21875 5.94531 6.03125C6.3099 5.84375 6.57552 5.58333 6.74219 5.25C6.91406 4.91667 7 4.53646 7 4.10938C7 3.71875 6.91406 3.35156 6.74219 3.00781C6.57552 2.66406 6.3099 2.38802 5.94531 2.17969C5.58073 1.96615 5.10417 1.85938 4.51562 1.85938H1.82812V12H0.320312V0.625H4.51562C5.375 0.625 6.10156 0.773438 6.69531 1.07031C7.28906 1.36719 7.73958 1.77865 8.04688 2.30469C8.35417 2.82552 8.50781 3.42188 8.50781 4.09375C8.50781 4.82292 8.35417 5.44531 8.04688 5.96094C7.73958 6.47656 7.28906 6.86979 6.69531 7.14062C6.10156 7.40625 5.375 7.53906 4.51562 7.53906ZM11.6406 4.875V12H10.1953V3.54688H11.6016L11.6406 4.875ZM14.2812 3.5L14.2734 4.84375C14.1536 4.81771 14.0391 4.80208 13.9297 4.79688C13.8255 4.78646 13.7057 4.78125 13.5703 4.78125C13.237 4.78125 12.9427 4.83333 12.6875 4.9375C12.4323 5.04167 12.2161 5.1875 12.0391 5.375C11.862 5.5625 11.7214 5.78646 11.6172 6.04688C11.5182 6.30208 11.4531 6.58333 11.4219 6.89062L11.0156 7.125C11.0156 6.61458 11.0651 6.13542 11.1641 5.6875C11.2682 5.23958 11.4271 4.84375 11.6406 4.5C11.8542 4.15104 12.125 3.88021 12.4531 3.6875C12.7865 3.48958 13.1823 3.39062 13.6406 3.39062C13.7448 3.39062 13.8646 3.40365 14 3.42969C14.1354 3.45052 14.2292 3.47396 14.2812 3.5ZM18.9688 12.1562C18.3802 12.1562 17.8464 12.0573 17.3672 11.8594C16.8932 11.6562 16.4844 11.3724 16.1406 11.0078C15.8021 10.6432 15.5417 10.2109 15.3594 9.71094C15.1771 9.21094 15.0859 8.66406 15.0859 8.07031V7.74219C15.0859 7.05469 15.1875 6.44271 15.3906 5.90625C15.5938 5.36458 15.8698 4.90625 16.2188 4.53125C16.5677 4.15625 16.9635 3.8724 17.4062 3.67969C17.849 3.48698 18.3073 3.39062 18.7812 3.39062C19.3854 3.39062 19.9062 3.49479 20.3438 3.70312C20.7865 3.91146 21.1484 4.20312 21.4297 4.57812C21.7109 4.94792 21.9193 5.38542 22.0547 5.89062C22.1901 6.39062 22.2578 6.9375 22.2578 7.53125V8.17969H15.9453V7H20.8125V6.89062C20.7917 6.51562 20.7135 6.15104 20.5781 5.79688C20.4479 5.44271 20.2396 5.15104 19.9531 4.92188C19.6667 4.69271 19.276 4.57812 18.7812 4.57812C18.4531 4.57812 18.151 4.64844 17.875 4.78906C17.599 4.92448 17.362 5.1276 17.1641 5.39844C16.9661 5.66927 16.8125 6 16.7031 6.39062C16.5938 6.78125 16.5391 7.23177 16.5391 7.74219V8.07031C16.5391 8.47135 16.5938 8.84896 16.7031 9.20312C16.8177 9.55208 16.9818 9.85938 17.1953 10.125C17.4141 10.3906 17.6771 10.599 17.9844 10.75C18.2969 10.901 18.651 10.9766 19.0469 10.9766C19.5573 10.9766 19.9896 10.8724 20.3438 10.6641C20.6979 10.4557 21.0078 10.1771 21.2734 9.82812L22.1484 10.5234C21.9661 10.7995 21.7344 11.0625 21.4531 11.3125C21.1719 11.5625 20.8255 11.7656 20.4141 11.9219C20.0078 12.0781 19.526 12.1562 18.9688 12.1562ZM26.4062 10.6953L28.7188 3.54688H30.1953L27.1562 12H26.1875L26.4062 10.6953ZM24.4766 3.54688L26.8594 10.7344L27.0234 12H26.0547L22.9922 3.54688H24.4766ZM33.1562 3.54688V12H31.7031V3.54688H33.1562ZM31.5938 1.30469C31.5938 1.07031 31.6641 0.872396 31.8047 0.710938C31.9505 0.549479 32.1641 0.46875 32.4453 0.46875C32.7214 0.46875 32.9323 0.549479 33.0781 0.710938C33.2292 0.872396 33.3047 1.07031 33.3047 1.30469C33.3047 1.52865 33.2292 1.72135 33.0781 1.88281C32.9323 2.03906 32.7214 2.11719 32.4453 2.11719C32.1641 2.11719 31.9505 2.03906 31.8047 1.88281C31.6641 1.72135 31.5938 1.52865 31.5938 1.30469ZM35.0938 7.86719V7.6875C35.0938 7.07812 35.1823 6.51302 35.3594 5.99219C35.5365 5.46615 35.7917 5.01042 36.125 4.625C36.4583 4.23438 36.862 3.93229 37.3359 3.71875C37.8099 3.5 38.3411 3.39062 38.9297 3.39062C39.5234 3.39062 40.0573 3.5 40.5312 3.71875C41.0104 3.93229 41.4167 4.23438 41.75 4.625C42.0885 5.01042 42.3464 5.46615 42.5234 5.99219C42.7005 6.51302 42.7891 7.07812 42.7891 7.6875V7.86719C42.7891 8.47656 42.7005 9.04167 42.5234 9.5625C42.3464 10.0833 42.0885 10.5391 41.75 10.9297C41.4167 11.3151 41.013 11.6172 40.5391 11.8359C40.0703 12.0495 39.5391 12.1562 38.9453 12.1562C38.3516 12.1562 37.8177 12.0495 37.3438 11.8359C36.8698 11.6172 36.4635 11.3151 36.125 10.9297C35.7917 10.5391 35.5365 10.0833 35.3594 9.5625C35.1823 9.04167 35.0938 8.47656 35.0938 7.86719ZM36.5391 7.6875V7.86719C36.5391 8.28906 36.5885 8.6875 36.6875 9.0625C36.7865 9.43229 36.9349 9.76042 37.1328 10.0469C37.3359 10.3333 37.5885 10.5599 37.8906 10.7266C38.1927 10.888 38.5443 10.9688 38.9453 10.9688C39.3411 10.9688 39.6875 10.888 39.9844 10.7266C40.2865 10.5599 40.5365 10.3333 40.7344 10.0469C40.9323 9.76042 41.0807 9.43229 41.1797 9.0625C41.2839 8.6875 41.3359 8.28906 41.3359 7.86719V7.6875C41.3359 7.27083 41.2839 6.8776 41.1797 6.50781C41.0807 6.13281 40.9297 5.80208 40.7266 5.51562C40.5286 5.22396 40.2786 4.99479 39.9766 4.82812C39.6797 4.66146 39.3307 4.57812 38.9297 4.57812C38.5339 4.57812 38.1849 4.66146 37.8828 4.82812C37.5859 4.99479 37.3359 5.22396 37.1328 5.51562C36.9349 5.80208 36.7865 6.13281 36.6875 6.50781C36.5885 6.8776 36.5391 7.27083 36.5391 7.6875ZM49.7734 10.0469V3.54688H51.2266V12H49.8438L49.7734 10.0469ZM50.0469 8.26562L50.6484 8.25C50.6484 8.8125 50.5885 9.33333 50.4688 9.8125C50.3542 10.2865 50.1667 10.6979 49.9062 11.0469C49.6458 11.3958 49.3047 11.6693 48.8828 11.8672C48.4609 12.0599 47.9479 12.1562 47.3438 12.1562C46.9323 12.1562 46.5547 12.0964 46.2109 11.9766C45.8724 11.8568 45.5807 11.6719 45.3359 11.4219C45.0911 11.1719 44.901 10.8464 44.7656 10.4453C44.6354 10.0443 44.5703 9.5625 44.5703 9V3.54688H46.0156V9.01562C46.0156 9.39583 46.0573 9.71094 46.1406 9.96094C46.2292 10.2057 46.3464 10.401 46.4922 10.5469C46.6432 10.6875 46.8099 10.7865 46.9922 10.8438C47.1797 10.901 47.3724 10.9297 47.5703 10.9297C48.1849 10.9297 48.6719 10.8125 49.0312 10.5781C49.3906 10.3385 49.6484 10.0182 49.8047 9.61719C49.9661 9.21094 50.0469 8.76042 50.0469 8.26562ZM58.3516 9.75781C58.3516 9.54948 58.3047 9.35677 58.2109 9.17969C58.1224 8.9974 57.9375 8.83333 57.6562 8.6875C57.3802 8.53646 56.9635 8.40625 56.4062 8.29688C55.9375 8.19792 55.513 8.08073 55.1328 7.94531C54.7578 7.8099 54.4375 7.64583 54.1719 7.45312C53.9115 7.26042 53.7109 7.03385 53.5703 6.77344C53.4297 6.51302 53.3594 6.20833 53.3594 5.85938C53.3594 5.52604 53.4323 5.21094 53.5781 4.91406C53.7292 4.61719 53.9401 4.35417 54.2109 4.125C54.487 3.89583 54.8177 3.71615 55.2031 3.58594C55.5885 3.45573 56.0182 3.39062 56.4922 3.39062C57.1693 3.39062 57.7474 3.51042 58.2266 3.75C58.7057 3.98958 59.0729 4.3099 59.3281 4.71094C59.5833 5.10677 59.7109 5.54688 59.7109 6.03125H58.2656C58.2656 5.79688 58.1953 5.57031 58.0547 5.35156C57.9193 5.1276 57.7188 4.94271 57.4531 4.79688C57.1927 4.65104 56.8724 4.57812 56.4922 4.57812C56.0911 4.57812 55.7656 4.64062 55.5156 4.76562C55.2708 4.88542 55.0911 5.03906 54.9766 5.22656C54.8672 5.41406 54.8125 5.61198 54.8125 5.82031C54.8125 5.97656 54.8385 6.11719 54.8906 6.24219C54.9479 6.36198 55.0469 6.47396 55.1875 6.57812C55.3281 6.67708 55.526 6.77083 55.7812 6.85938C56.0365 6.94792 56.362 7.03646 56.7578 7.125C57.4505 7.28125 58.0208 7.46875 58.4688 7.6875C58.9167 7.90625 59.25 8.17448 59.4688 8.49219C59.6875 8.8099 59.7969 9.19531 59.7969 9.64844C59.7969 10.0182 59.7188 10.3568 59.5625 10.6641C59.4115 10.9714 59.1901 11.237 58.8984 11.4609C58.612 11.6797 58.2682 11.8516 57.8672 11.9766C57.4714 12.0964 57.026 12.1562 56.5312 12.1562C55.7865 12.1562 55.1562 12.0234 54.6406 11.7578C54.125 11.4922 53.7344 11.1484 53.4688 10.7266C53.2031 10.3047 53.0703 9.85938 53.0703 9.39062H54.5234C54.5443 9.78646 54.6589 10.1016 54.8672 10.3359C55.0755 10.5651 55.3307 10.7292 55.6328 10.8281C55.9349 10.9219 56.2344 10.9688 56.5312 10.9688C56.9271 10.9688 57.2578 10.9167 57.5234 10.8125C57.7943 10.7083 58 10.5651 58.1406 10.3828C58.2812 10.2005 58.3516 9.99219 58.3516 9.75781Z" fill="#303030"/>
</svg>
